<svg xmlns="http://www.w3.org/2000/svg"
 width="100%" height="100%" viewBox="0 0 1313.600927 1538.876993"
 preserveAspectRatio="xMidYMid meet">
<g transform="translate(-186.449289,1603.887407) scale(0.100000,-0.100000)"
fill="#258597" stroke="none">
<path d="M5545 16029 c-305 -22 -774 -143 -983 -254 -385 -205 -1002 -764
-1224 -1110 -91 -142 -285 -605 -368 -880 -88 -292 -120 -496 -127 -815 -8
-380 8 -528 98 -864 161 -600 294 -887 674 -1456 300 -449 303 -452 730 -900
50 -52 145 -167 210 -255 131 -178 223 -277 400 -433 195 -172 450 -428 556
-559 126 -155 185 -212 334 -326 347 -263 433 -340 617 -545 123 -137 276
-265 489 -410 166 -113 305 -223 468 -373 238 -218 317 -282 508 -410 284
-190 343 -215 488 -207 104 5 161 32 366 168 221 148 290 203 456 363 148 142
405 346 633 502 80 55 161 124 265 226 322 315 436 419 595 538 234 176 249
189 378 335 184 208 362 385 567 564 240 210 267 237 503 521 108 129 250 291
315 360 250 263 410 455 493 593 21 35 122 189 224 343 274 412 317 491 463
860 296 745 334 1175 177 1980 -83 423 -329 969 -573 1272 -209 260 -468 525
-613 629 -421 299 -616 392 -996 473 -296 64 -320 66 -678 65 -630 -1 -1053
-92 -1427 -306 -100 -58 -113 -67 -474 -353 -146 -116 -301 -233 -344 -261
-44 -27 -136 -87 -205 -133 -179 -119 -206 -113 -443 108 -111 103 -162 141
-367 271 -178 114 -257 173 -380 285 -239 217 -454 299 -965 365 -129 17 -612
43 -700 38 -11 0 -74 -5 -140 -9z M5230 5589 c-369 -36 -696 -135 -1082 -325
-115 -57 -313 -149 -441 -205 -358 -157 -390 -175 -592 -330 -183 -140 -333
-225 -613 -345 -337 -145 -533 -280 -603 -417 -65 -125 -43 -248 106 -587 101
-230 139 -338 165 -460 61 -289 86 -349 250 -610 180 -288 230 -395 305 -656
57 -195 99 -284 207 -439 173 -249 287 -304 488 -235 244 83 616 256 803 371
159 99 325 180 427 209 195 54 550 31 993 -66 428 -93 408 -87 777 -234 113
-44 304 -110 425 -145 376 -109 764 -231 905 -285 291 -111 336 -122 710 -165
154 -17 657 -21 779 -5 246 32 536 161 782 347 83 63 212 156 288 206 75 49
170 116 211 147 126 96 237 164 400 245 85 42 218 118 295 168 378 245 586
386 755 512 239 179 346 248 675 435 300 171 340 196 505 320 63 48 169 123
235 168 66 45 167 119 226 164 58 46 211 147 340 225 128 78 284 176 344 218
61 42 164 113 229 158 242 166 405 327 440 434 66 202 38 654 -51 832 -50 98
-163 194 -315 266 -341 162 -793 88 -1222 -199 -71 -47 -175 -109 -230 -137
-56 -29 -166 -88 -246 -132 -147 -82 -287 -151 -505 -248 -66 -29 -221 -112
-345 -183 -124 -71 -299 -171 -389 -222 -180 -104 -213 -127 -317 -225 -129
-120 -167 -108 -266 86 -153 300 -338 454 -635 527 -102 24 -140 25 -933 19
-878 -7 -1155 25 -1500 176 -58 25 -141 61 -185 80 -44 19 -225 77 -402 129
-177 52 -413 126 -525 164 -402 140 -666 205 -948 235 -181 20 -583 28 -720
14z"/>
</g>
</svg>
